<svg width="532" height="246" xmlns="http://www.w3.org/2000/svg" xmlns:xlink="http://www.w3.org/1999/xlink" overflow="hidden"><defs><clipPath id="clip0"><rect x="0" y="0" width="532" height="246"/></clipPath><clipPath id="clip1"><rect x="0" y="0" width="531" height="246"/></clipPath><clipPath id="clip2"><rect x="0" y="0" width="531" height="246"/></clipPath><clipPath id="clip3"><rect x="0" y="0" width="531" height="246"/></clipPath><clipPath id="clip4"><rect x="0" y="0" width="531" height="246"/></clipPath><clipPath id="clip5"><rect x="0" y="-2" width="530" height="247"/></clipPath><clipPath id="clip6"><rect x="0" y="-2" width="530" height="247"/></clipPath><clipPath id="clip7"><rect x="0" y="-2" width="530" height="247"/></clipPath><clipPath id="clip8"><rect x="0" y="-2" width="530" height="247"/></clipPath><clipPath id="clip9"><rect x="0" y="-2" width="530" height="247"/></clipPath><clipPath id="clip10"><rect x="22" y="32" width="493" height="193"/></clipPath><clipPath id="clip11"><rect x="0" y="-2" width="530" height="247"/></clipPath><clipPath id="clip12"><rect x="0" y="-2" width="530" height="247"/></clipPath><clipPath id="clip13"><rect x="0" y="-2" width="530" height="247"/></clipPath><clipPath id="clip14"><rect x="0" y="-2" width="530" height="247"/></clipPath><clipPath id="clip15"><rect x="0" y="-2" width="530" height="247"/></clipPath><clipPath id="clip16"><rect x="0" y="-2" width="530" height="247"/></clipPath><clipPath id="clip17"><rect x="0" y="-2" width="530" height="247"/></clipPath><clipPath id="clip18"><rect x="0" y="-2" width="530" height="247"/></clipPath><clipPath id="clip19"><rect x="0" y="-2" width="530" height="247"/></clipPath><clipPath id="clip20"><rect x="0" y="-2" width="530" height="247"/></clipPath><clipPath id="clip21"><rect x="0" y="-2" width="530" height="247"/></clipPath><clipPath id="clip22"><rect x="0" y="-2" width="530" height="247"/></clipPath><clipPath id="clip23"><rect x="0" y="-2" width="530" height="247"/></clipPath><clipPath id="clip24"><rect x="0" y="-2" width="530" height="247"/></clipPath><clipPath id="clip25"><rect x="0" y="-2" width="530" height="247"/></clipPath><clipPath id="clip26"><rect x="0" y="-2" width="530" height="247"/></clipPath><clipPath id="clip27"><rect x="0" y="-2" width="530" height="247"/></clipPath><clipPath id="clip28"><rect x="0" y="-2" width="530" height="247"/></clipPath><clipPath id="clip29"><rect x="0" y="-2" width="530" height="247"/></clipPath><clipPath id="clip30"><rect x="0" y="-2" width="530" height="247"/></clipPath><clipPath id="clip31"><rect x="0" y="-2" width="530" height="247"/></clipPath><clipPath id="clip32"><rect x="0" y="-2" width="530" height="247"/></clipPath><clipPath id="clip33"><rect x="0" y="-2" width="530" height="247"/></clipPath><clipPath id="clip34"><rect x="0" y="-2" width="530" height="247"/></clipPath><clipPath id="clip35"><rect x="0" y="-2" width="530" height="247"/></clipPath><clipPath id="clip36"><rect x="0" y="-2" width="530" height="247"/></clipPath><clipPath id="clip37"><rect x="0" y="-2" width="530" height="247"/></clipPath></defs><g clip-path="url(#clip0)"><g clip-path="url(#clip1)"><g clip-path="url(#clip2)"><g clip-path="url(#clip3)"><g clip-path="url(#clip4)"><path d="M437.928 97.4493 966.174 97.4493 966.174 342.855 437.928 342.855Z" fill="#FFFFFF" fill-rule="nonzero" fill-opacity="1" transform="matrix(1.00183 0 0 1 -438.135 -97.4493)"/><g clip-path="url(#clip5)"><path d="M459.913 130.13 950.725 130.13 950.725 321.464 459.913 321.464Z" fill="#FFFFFF" fill-rule="nonzero" fill-opacity="1" transform="matrix(1.00183 0 0 1 -438.135 -97.4493)"/></g><g clip-path="url(#clip6)"><path d="M460.21 283.138 951.022 283.138M460.21 245.109 951.022 245.109M460.21 207.08 951.022 207.08M460.21 168.457 951.022 168.457M460.21 130.428 951.022 130.428" stroke="#000000" stroke-width="0.297101" stroke-linecap="butt" stroke-linejoin="round" stroke-miterlimit="10" stroke-opacity="1" fill="none" fill-rule="nonzero" transform="matrix(1.00183 0 0 1 -438.135 -97.4493)"/></g><g clip-path="url(#clip7)"><path d="M489.326 130.428 489.326 321.761M517.848 130.428 517.848 321.761M546.964 130.428 546.964 321.761M575.485 130.428 575.485 321.761M604.601 130.428 604.601 321.761M633.123 130.428 633.123 321.761M662.239 130.428 662.239 321.761M691.355 130.428 691.355 321.761M719.877 130.428 719.877 321.761M748.993 130.428 748.993 321.761M777.514 130.428 777.514 321.761M806.63 130.428 806.63 321.761M835.152 130.428 835.152 321.761M864.268 130.428 864.268 321.761M893.384 130.428 893.384 321.761M921.906 130.428 921.906 321.761M951.022 130.428 951.022 321.761" stroke="#000000" stroke-width="0.297101" stroke-linecap="butt" stroke-linejoin="round" stroke-miterlimit="10" stroke-opacity="1" fill="none" fill-rule="nonzero" transform="matrix(1.00183 0 0 1 -438.135 -97.4493)"/></g><g clip-path="url(#clip8)"><path d="M1.18841-5.81213e-07 1.18849 185.391-1.18832 185.391-1.18841 5.81213e-07ZM3.56531 184.203 9.35751e-05 191.333-3.56513 184.203Z" fill="#000000" fill-rule="nonzero" fill-opacity="1" transform="matrix(1.00183 0 0 -1 22.6211 224.014)"/></g><g clip-path="url(#clip9)"><path d="M459.913 320.275 944.783 320.275 944.783 322.652 459.913 322.652ZM943.594 317.899 950.725 321.464 943.594 325.029Z" fill="#000000" fill-rule="nonzero" fill-opacity="1" transform="matrix(1.00183 0 0 1 -438.135 -97.4493)"/></g><g clip-path="url(#clip10)"><path d="M459.913 321.464 460.507 321.464 461.101 321.464 461.696 321.464 461.696 320.87 462.29 320.87 462.884 320.87 463.478 320.87 464.072 320.87 464.667 320.87 465.261 320.87 465.855 320.87 466.449 320.87 467.043 320.87 467.638 320.87 468.232 320.87 468.826 320.87 469.42 320.87 470.014 320.87 470.609 320.87 471.203 320.87 471.797 320.87 472.391 320.87 472.986 320.87 473.58 320.87 474.174 320.87 474.768 320.87 475.362 320.87 475.957 320.87 476.551 320.87 477.145 320.87 477.739 320.87 478.333 320.87 478.333 320.275 478.928 320.275 479.522 319.681 480.116 319.681 480.116 319.087 480.71 319.087 480.71 318.493 481.304 317.899 481.899 317.304 481.899 316.71 482.493 316.71 482.493 316.116 483.087 316.116 483.087 315.522 483.681 315.522 483.681 314.928 484.275 314.333 484.275 313.739 484.87 313.739 484.87 313.145 485.464 312.551 485.464 311.957 486.058 311.957 486.058 311.362 486.652 310.768 486.652 310.174 487.246 309.58 487.246 308.986 487.841 308.986 487.841 308.391 488.435 307.797 488.435 307.203 489.029 307.203 489.029 306.609 489.029 306.014 489.623 306.014 489.623 305.42 489.623 304.826 490.217 304.826 490.217 304.232 490.217 303.638 490.812 303.638 490.812 303.043 491.406 302.449 491.406 301.855 492 301.855 492 301.261 492 300.667 492.594 300.667 492.594 300.072 493.188 299.478 493.188 298.884 493.783 298.29 493.783 297.696 494.377 297.696 494.377 297.101 494.377 296.507 494.971 296.507 494.971 295.913 494.971 295.319 495.565 295.319 495.565 294.725 496.159 294.13 496.159 293.536 496.754 292.942 496.754 292.348 497.348 292.348 497.348 291.754 497.348 291.159 497.942 291.159 497.942 290.565 498.536 289.971 498.536 289.377 499.13 288.783 499.13 288.188 499.725 287.594 499.725 287 500.319 286.406 500.319 285.812 500.913 285.217 500.913 284.623 501.507 284.623 501.507 284.029 501.507 283.435 502.101 283.435 502.101 282.841 502.101 282.246 502.696 282.246 502.696 281.652 503.29 281.058 503.29 280.464 503.884 279.87 503.884 279.275 504.478 278.681 504.478 278.087 505.072 277.493 505.072 276.899 505.667 276.304 505.667 275.71 506.261 275.116 506.261 274.522 506.855 273.928 506.855 273.333 507.449 273.333 507.449 272.739 507.449 272.145 508.043 272.145 508.043 271.551 508.638 270.957 508.638 270.362 509.232 270.362 509.232 269.768 509.232 269.174 509.826 269.174 509.826 268.58 509.826 267.986 510.42 267.986 510.42 267.391 510.42 266.797 511.014 266.797 511.014 266.203 511.609 265.609 511.609 265.014 512.203 264.42 512.203 263.826 512.797 263.826 512.797 263.232 513.391 262.638 513.391 262.043 513.985 261.449 513.985 260.855 514.58 260.855 514.58 260.261 514.58 259.667 515.174 259.072 515.174 258.478 515.768 258.478 515.768 257.884 515.768 257.29 516.362 257.29 516.362 256.696 516.956 256.101 516.956 255.507 517.551 254.913 517.551 254.319 518.145 254.319 518.145 253.725 518.145 253.13 518.739 253.13 518.739 252.536 519.333 251.942 519.333 251.348 519.927 251.348 519.927 250.754 519.927 250.159 520.522 250.159 520.522 249.565 520.522 248.971 521.116 248.971 521.116 248.377 521.71 247.783 521.71 247.188 522.304 247.188 522.304 246.594 522.304 246 522.899 246 522.899 245.406 523.493 244.812 523.493 244.217 524.087 244.217 524.087 243.623 524.681 243.029 524.681 242.435 525.275 241.841 525.275 241.246 525.87 240.652 525.87 240.058 526.464 239.464 526.464 238.87 527.058 238.87 527.058 238.275 527.652 237.681 527.652 237.087 528.246 237.087 528.246 236.493 528.841 236.493 528.841 235.899 529.435 235.304 530.029 234.71 530.623 234.116 531.217 234.116 531.217 233.522 531.812 233.522 532.406 233.522 533 233.522 533 232.928 533.594 232.928 534.188 232.928 534.783 232.928 535.377 232.928 535.971 232.928 536.565 232.928 537.159 232.928 537.754 232.928 538.348 232.928 538.942 232.928 539.536 232.928 540.13 232.928 540.725 232.928 541.319 233.522 541.913 233.522 542.507 233.522 543.101 233.522 543.696 233.522 544.29 233.522 544.884 233.522 545.478 233.522 545.478 234.116 546.072 234.116 546.667 234.116 547.261 234.116 547.855 234.116 548.449 234.116 549.043 234.71 549.638 234.71 550.232 234.71 550.826 234.71 550.826 235.304 551.42 235.304 552.014 235.304 552.609 235.304 553.203 235.304 553.797 235.304 553.797 235.899 554.391 235.899 554.985 235.899 555.58 235.899 556.174 235.899 556.768 235.899 557.362 235.899 557.362 236.493 557.956 236.493 558.551 236.493 559.145 236.493 559.739 236.493 560.333 237.087 560.927 237.087 561.522 237.087 562.116 237.087 562.71 237.087 563.304 237.087 563.899 237.087 564.493 237.087 565.087 237.087 565.681 236.493 566.275 235.899 566.87 235.899 566.87 235.304 567.464 235.304 567.464 234.71 568.058 234.116 568.652 233.522 569.246 232.928 569.246 232.333 569.841 232.333 569.841 231.739 570.435 231.739 570.435 231.145 571.029 231.145 571.029 230.551 571.029 229.957 571.623 229.957 571.623 229.362 572.217 229.362 572.217 228.768 572.812 228.174 572.812 227.58 573.406 227.58 573.406 226.986 574 226.391 574 225.797 574.594 225.797 574.594 225.203 575.188 224.609 575.188 224.014 575.783 224.014 575.783 223.42 575.783 222.826 576.377 222.826 576.377 222.232 576.971 222.232 576.971 221.638 576.971 221.043 577.565 221.043 577.565 220.449 578.159 219.855 578.159 219.261 578.754 219.261 578.754 218.667 579.348 218.072 579.348 217.478 579.942 217.478 579.942 216.884 580.536 216.29 580.536 215.696 581.13 215.696 581.13 215.101 581.13 214.507 581.725 214.507 581.725 213.913 581.725 213.319 582.319 213.319 582.319 212.725 582.913 212.13 582.913 211.536 583.507 211.536 583.507 210.942 584.101 210.348 584.101 209.754 584.696 209.754 584.696 209.159 585.29 208.565 585.29 207.971 585.884 207.971 585.884 207.377 585.884 206.783 586.478 206.783 586.478 206.188 587.072 205.594 587.072 205 587.667 205 587.667 204.406 587.667 203.812 588.261 203.812 588.261 203.217 588.855 202.623 588.855 202.029 589.449 201.435 589.449 200.841 590.043 200.246 590.043 199.652 590.638 199.652 590.638 199.058 590.638 198.464 591.232 198.464 591.232 197.87 591.232 197.275 591.826 196.681 591.826 196.087 592.42 195.493 592.42 194.899 593.014 194.899 593.014 194.304 593.014 193.71 593.609 193.71 593.609 193.116 593.609 192.522 594.203 192.522 594.203 191.928 594.203 191.333 594.797 191.333 594.797 190.739 595.391 190.145 595.391 189.551 595.985 188.957 595.985 188.362 595.985 187.768 596.58 187.768 596.58 187.174 597.174 186.58 597.174 185.986 597.768 185.391 597.768 184.797 598.362 184.797 598.362 184.203 598.956 183.609 598.956 183.014 599.551 182.42 599.551 181.826 600.145 181.826 600.145 181.232 600.145 180.638 600.739 180.638 600.739 180.043 601.333 179.449 601.333 178.855 601.927 178.261 601.927 177.667 602.522 177.667 602.522 177.072 603.116 176.478 603.116 175.884 603.71 175.884 603.71 175.29 603.71 174.696 604.304 174.696 604.304 174.101 604.898 173.507 604.898 172.913 605.493 172.913 605.493 172.319 606.087 172.319 606.087 171.725 606.681 171.725 606.681 171.13 607.275 171.13 607.87 170.536 608.464 170.536 609.058 170.536 609.058 169.942 609.652 169.942 610.246 169.942 610.841 169.942 611.435 169.942 612.029 169.942 612.623 169.942 612.623 170.536 613.217 170.536 613.812 170.536 614.406 170.536 615 170.536 615 171.13 615.594 171.13 616.188 171.13 616.783 171.13 617.377 171.13 617.971 171.13 618.565 171.13 618.565 171.725 619.159 171.725 619.754 171.725 620.348 171.725 620.942 171.725 621.536 171.725 622.13 171.725 622.725 171.725 623.319 171.725 623.913 171.725 623.913 172.319 624.507 172.319 625.101 172.319 625.696 171.725 626.29 171.725 626.884 171.725 627.478 171.725 628.072 171.725 628.667 171.725 629.261 171.725 629.855 171.725 630.449 171.725 631.043 171.13 631.638 171.13 632.232 171.13 632.826 171.13 633.42 171.13 634.014 171.13 634.609 170.536 635.203 170.536 635.797 170.536 636.391 170.536 636.985 170.536 637.58 170.536 637.58 169.942 638.174 169.942 638.768 169.942 639.362 169.942 639.956 169.942 640.551 169.942 640.551 169.348 641.145 169.348 641.739 169.348 641.739 168.754 642.333 168.754 642.333 168.159 642.927 168.159 642.927 167.565 643.522 167.565 644.116 166.971 644.71 166.377 644.71 165.783 645.304 165.783 645.304 165.188 645.898 165.188 645.898 164.594 646.493 164.594 646.493 164 646.493 163.406 647.087 163.406 647.087 162.812 647.681 162.217 647.681 161.623 648.275 161.623 648.275 161.029 648.87 160.435 648.87 159.841 649.464 159.841 649.464 159.246 649.464 158.652 650.058 158.652 650.058 158.058 650.652 158.058 650.652 157.464 651.246 157.464 651.246 156.87 651.841 156.87 651.841 156.275 652.435 156.275 652.435 155.681 653.029 155.681 653.623 155.681 654.217 155.087 654.812 155.087 655.406 155.087 656 155.087 656.594 155.087 656.594 154.493 657.188 154.493 657.783 154.493 658.377 154.493 658.971 154.493 659.565 154.493 659.565 155.087 660.159 155.087 660.754 155.087 661.348 155.087 661.942 155.087 662.536 155.087 663.13 155.087 663.725 155.087 664.319 155.087 664.913 155.087 665.507 155.087 666.101 155.087 666.696 155.087 667.29 155.087 667.884 155.087 668.478 155.087 669.072 155.087 669.667 155.087 670.261 155.087 670.855 155.087 671.449 155.087 672.043 155.087 672.638 155.087 673.232 155.087 673.826 155.087 674.42 155.087 675.014 155.087 675.609 155.087 676.203 155.087 676.797 155.087 677.391 155.087 677.985 155.087 678.58 155.087 679.174 155.087 679.768 155.087 680.362 155.087 680.956 155.087 681.551 155.087 682.145 155.087 682.739 155.087 683.333 155.087 683.927 155.087 684.522 155.087 685.116 155.681 685.71 155.681 686.304 155.681 686.898 155.681 687.493 156.275 688.087 156.275 688.681 156.275 689.275 156.275 689.87 156.275 690.464 156.275 690.464 156.87 691.058 156.87 691.652 156.87 692.246 156.87 692.841 156.87 693.435 156.87 694.029 156.87 694.623 156.87 695.217 156.87 695.217 156.275 695.812 156.275 696.406 156.275 697 156.275 697.594 155.681 698.188 155.681 698.783 155.681 699.377 155.681 699.971 155.681 700.565 155.681 701.159 155.681 701.754 155.681 702.348 155.087 702.942 155.087 703.536 155.087 704.13 155.087 704.725 155.087 704.725 154.493 705.319 154.493 705.913 154.493 706.507 154.493 707.101 153.899 707.696 153.899 708.29 153.899 708.884 153.899 709.478 153.304 710.072 153.304 710.667 153.304 711.261 153.304 711.855 153.304 712.449 153.304 713.043 153.304 713.638 153.304 714.232 153.304 714.826 153.304 715.42 153.304 716.014 153.304 716.609 153.304 717.203 153.304 717.797 153.304 718.391 153.304 718.985 153.304 719.58 153.304 720.174 153.304 720.768 153.304 721.362 153.304 721.956 153.304 722.551 153.304 723.145 153.304 723.739 153.304 724.333 153.899 724.927 153.899 725.522 153.899 726.116 153.899 726.71 153.899 726.71 154.493 727.304 154.493 727.898 154.493 728.493 154.493 729.087 154.493 729.681 155.087 730.275 155.087 730.87 155.087 731.464 155.087 731.464 155.681 732.058 155.681 732.652 155.681 733.246 155.681 733.246 156.275 733.841 156.275 734.435 156.275 735.029 156.87 735.623 156.87 736.217 156.87 736.217 157.464 736.812 157.464 737.406 157.464 738 157.464 738 158.058 738.594 158.058 739.188 158.058 739.783 158.058 739.783 158.652 740.377 158.652 740.971 158.652 740.971 159.246 741.565 159.246 742.159 159.246 742.159 159.841 742.754 159.841 743.348 160.435 743.942 160.435 743.942 161.029 744.536 161.029 744.536 161.623 745.13 161.623 745.13 162.217 745.725 162.217 745.725 162.812 746.319 162.812 746.319 163.406 746.913 164 747.507 164.594 747.507 165.188 748.101 165.188 748.101 165.783 748.696 165.783 748.696 166.377 749.29 166.971 749.29 167.565 749.884 167.565 749.884 168.159 750.478 168.159 750.478 168.754 751.072 168.754 751.072 169.348 751.667 169.348 751.667 169.942 752.261 169.942 752.261 170.536 752.855 170.536 752.855 171.13 753.449 171.13 753.449 171.725 754.043 172.319 754.043 172.913 754.638 172.913 754.638 173.507 755.232 173.507 755.232 174.101 755.826 174.696 755.826 175.29 756.42 175.29 756.42 175.884 757.014 175.884 757.014 176.478 757.609 176.478 757.609 177.072 758.203 177.072 758.203 177.667 758.797 177.667 758.797 178.261 759.391 178.261 759.985 178.855 760.58 178.855 761.174 179.449 761.768 179.449 762.362 179.449 762.956 179.449 762.956 180.043 763.551 180.043 764.145 180.043 764.739 180.043 765.333 180.043 765.927 180.043 766.522 180.043 767.116 180.043 767.71 180.043 768.304 180.043 768.898 180.043 769.493 180.043 770.087 180.043 770.681 180.638 771.275 180.638 771.87 180.638 772.464 180.638 773.058 180.638 773.652 180.638 774.246 180.638 774.841 180.638 775.435 180.638 776.029 180.638 776.623 180.638 777.217 180.043 777.812 180.043 778.406 180.043 779 180.043 779.594 180.043 780.188 180.043 780.783 180.043 781.377 180.043 781.377 179.449 781.971 179.449 782.565 179.449 783.159 179.449 783.754 179.449 784.348 179.449 784.942 179.449 785.536 179.449 786.13 179.449 786.725 179.449 787.319 179.449 787.319 178.855 787.913 178.855 788.507 178.855 789.101 178.855 789.696 179.449 790.29 179.449 790.884 179.449 790.884 178.855 791.478 178.855 792.072 178.855 792.667 178.855 793.261 178.855 793.855 178.855 794.449 178.855 795.043 178.855 795.638 178.855 796.232 178.855 796.826 178.855 797.42 178.855 798.014 178.855 798.609 178.855 799.203 178.855 799.797 178.855 800.391 178.855 800.985 178.855 801.58 178.855 801.58 179.449 802.174 179.449 802.768 179.449 803.362 179.449 803.956 179.449 804.551 179.449 805.145 179.449 805.739 179.449 806.333 179.449 806.927 179.449 806.927 180.043 807.522 180.043 808.116 180.043 808.71 180.043 809.304 180.043 809.898 180.043 810.493 180.043 811.087 180.043 811.681 180.043 812.275 180.043 812.87 180.043 813.464 180.638 814.058 180.638 814.652 180.638 815.246 180.638 815.841 180.638 816.435 180.638 817.029 180.638 817.623 180.638 818.217 180.638 818.812 180.638 819.406 180.638 820 180.638 820.594 180.638 821.188 180.638 821.783 180.638 822.377 180.638 822.971 180.638 823.565 180.638 824.159 180.638 824.754 180.638 825.348 180.638 825.942 180.638 826.536 180.638 827.13 180.638 827.725 180.638 828.319 180.638 828.913 180.638 829.507 180.638 830.101 180.638 830.696 180.638 831.29 180.638 831.884 180.638 831.884 180.043 832.478 180.043 833.072 180.043 833.667 180.043 834.261 180.043 834.855 180.043 835.449 180.043 836.043 180.043 836.638 180.043 836.638 180.638 837.232 180.638 837.826 180.638 838.42 180.638 839.014 180.638 839.609 180.638 840.203 180.638 840.797 180.638 840.797 181.232 841.391 181.232 841.985 181.232 842.58 181.232 843.174 181.232 843.768 181.826 844.362 181.826 844.956 181.826 844.956 182.42 845.551 182.42 846.145 182.42 846.739 183.014 847.333 183.014 847.333 183.609 847.927 183.609 848.522 184.203 849.116 184.203 849.116 184.797 849.71 184.797 849.71 185.391 850.304 185.391 850.304 185.986 850.898 185.986 850.898 186.58 851.493 187.174 852.087 187.768 852.681 188.362 852.681 188.957 853.275 188.957 853.275 189.551 853.87 189.551 853.87 190.145 854.464 190.145 854.464 190.739 855.058 191.333 855.652 191.928 855.652 192.522 856.246 192.522 856.246 193.116 856.841 193.71 856.841 194.304 857.435 194.304 857.435 194.899 858.029 195.493 858.029 196.087 858.623 196.681 858.623 197.275 859.217 197.275 859.217 197.87 859.217 198.464 859.812 198.464 859.812 199.058 859.812 199.652 860.406 199.652 860.406 200.246 860.406 200.841 861 200.841 861 201.435 861 202.029 861.594 202.623 861.594 203.217 862.188 203.812 862.188 204.406 862.188 205 862.783 205 862.783 205.594 862.783 206.188 863.377 206.188 863.377 206.783 863.377 207.377 863.971 207.377 863.971 207.971 863.971 208.565 864.565 209.159 864.565 209.754 865.159 210.348 865.159 210.942 865.754 211.536 865.754 212.13 865.754 212.725 866.348 212.725 866.348 213.319 866.348 213.913 866.942 214.507 866.942 215.101 867.536 215.696 867.536 216.29 868.13 216.884 868.13 217.478 868.725 218.072 868.725 218.667 869.319 219.261 869.319 219.855 869.913 220.449 869.913 221.043 870.507 221.638 870.507 222.232 871.101 222.826 871.101 223.42 871.101 224.014 871.696 224.014 871.696 224.609 871.696 225.203 872.29 225.203 872.29 225.797 872.884 226.391 872.884 226.986 873.478 227.58 873.478 228.174 874.072 228.768 874.072 229.362 874.667 229.957 874.667 230.551 875.261 231.145 875.261 231.739 875.855 232.333 875.855 232.928 875.855 233.522 876.449 233.522 876.449 234.116 876.449 234.71 877.043 234.71 877.043 235.304 877.043 235.899 877.638 235.899 877.638 236.493 877.638 237.087 878.232 237.087 878.232 237.681 878.232 238.275 878.826 238.87 878.826 239.464 879.42 240.058 879.42 240.652 880.014 241.246 880.014 241.841 880.609 242.435 880.609 243.029 881.203 243.623 881.203 244.217 881.203 244.812 881.797 244.812 881.797 245.406 881.797 246 882.391 246 882.391 246.594 882.391 247.188 882.985 247.188 882.985 247.783 882.985 248.377 883.58 248.971 883.58 249.565 884.174 250.159 884.174 250.754 884.768 251.348 884.768 251.942 884.768 252.536 885.362 252.536 885.362 253.13 885.362 253.725 885.956 254.319 885.956 254.913 885.956 255.507 886.551 256.101 886.551 256.696 886.551 257.29 887.145 257.29 887.145 257.884 887.145 258.478 887.739 259.072 887.739 259.667 887.739 260.261 888.333 260.261 888.333 260.855 888.333 261.449 888.927 262.043 888.927 262.638 888.927 263.232 889.522 263.826 889.522 264.42 889.522 265.014 890.116 265.014 890.116 265.609 890.116 266.203 890.71 266.797 890.71 267.391 890.71 267.986 891.304 268.58 891.304 269.174 891.304 269.768 891.898 270.362 891.898 270.957 891.898 271.551 892.493 272.145 892.493 272.739 892.493 273.333 893.087 273.928 893.087 274.522 893.087 275.116 893.681 275.116 893.681 275.71 893.681 276.304 893.681 276.899 894.275 276.899 894.275 277.493 894.275 278.087 894.87 278.681 894.87 279.275 894.87 279.87 895.464 280.464 895.464 281.058 895.464 281.652 896.058 282.246 896.058 282.841 896.058 283.435 896.652 283.435 896.652 284.029 896.652 284.623 896.652 285.217 897.246 285.812 897.246 286.406 897.246 287 897.841 287.594 897.841 288.188 897.841 288.783 898.435 288.783 898.435 289.377 898.435 289.971 899.029 290.565 899.029 291.159 899.029 291.754 899.623 291.754 899.623 292.348 899.623 292.942 900.217 293.536 900.217 294.13 900.812 294.725 900.812 295.319 900.812 295.913 901.406 295.913 901.406 296.507 901.406 297.101 902 297.696 902 298.29 902 298.884 902.594 298.884 902.594 299.478 902.594 300.072 903.188 300.072 903.188 300.667 903.188 301.261 903.783 301.261 903.783 301.855 903.783 302.449 904.377 303.043 904.377 303.638 904.971 304.232 904.971 304.826 905.565 305.42 905.565 306.014 906.159 306.609 906.159 307.203 906.159 307.797 906.754 307.797 906.754 308.391 906.754 308.986 907.348 309.58 907.348 310.174 907.942 310.768 907.942 311.362 908.536 311.362 908.536 311.957 908.536 312.551 909.13 312.551 909.13 313.145 909.13 313.739 909.725 313.739 909.725 314.333 910.319 314.928 910.319 315.522 910.913 315.522 910.913 316.116 910.913 316.71 911.507 316.71 911.507 317.304 912.101 317.899 912.696 318.493 912.696 319.087 913.29 319.087 913.29 319.681 913.884 319.681 913.884 320.275 914.478 320.275 914.478 320.87 915.072 320.87 915.072 321.464 915.667 321.464 915.667 322.058 916.261 322.058 916.261 322.652 916.855 322.652 917.449 322.652 917.449 323.246 918.043 323.246 918.638 323.246 918.638 323.841 919.232 323.841 919.826 323.841 920.42 323.841 921.014 324.435 921.609 324.435 922.203 324.435 922.797 324.435 923.391 324.435 923.985 324.435" stroke="#000000" stroke-width="1.18841" stroke-linecap="round" stroke-linejoin="round" stroke-miterlimit="10" stroke-opacity="1" fill="none" fill-rule="nonzero" transform="matrix(1.00183 0 0 1 -438.135 -97.4493)"/></g><g clip-path="url(#clip11)"><text fill="#595959" fill-opacity="1" font-family="Calibri,Calibri_MSFontService,sans-serif" font-style="normal" font-variant="normal" font-weight="400" font-stretch="normal" font-size="18" text-anchor="start" direction="ltr" writing-mode="lr-tb" unicode-bidi="normal" text-decoration="none" transform="matrix(0.595291 0 0 0.594203 7.51258 227)">0</text></g><g clip-path="url(#clip12)"><text fill="#595959" fill-opacity="1" font-family="Calibri,Calibri_MSFontService,sans-serif" font-style="normal" font-variant="normal" font-weight="400" font-stretch="normal" font-size="18" text-anchor="start" direction="ltr" writing-mode="lr-tb" unicode-bidi="normal" text-decoration="none" transform="matrix(0.595291 0 0 0.594203 7.51258 189)">5</text></g><g clip-path="url(#clip13)"><text fill="#595959" fill-opacity="1" font-family="Calibri,Calibri_MSFontService,sans-serif" font-style="normal" font-variant="normal" font-weight="400" font-stretch="normal" font-size="18" text-anchor="start" direction="ltr" writing-mode="lr-tb" unicode-bidi="normal" text-decoration="none" transform="matrix(0.595291 0 0 0.594203 2.08352 151)">10</text></g><g clip-path="url(#clip14)"><text fill="#595959" fill-opacity="1" font-family="Calibri,Calibri_MSFontService,sans-serif" font-style="normal" font-variant="normal" font-weight="400" font-stretch="normal" font-size="18" text-anchor="start" direction="ltr" writing-mode="lr-tb" unicode-bidi="normal" text-decoration="none" transform="matrix(0.595291 0 0 0.594203 2.08352 112)">15</text></g><g clip-path="url(#clip15)"><text fill="#595959" fill-opacity="1" font-family="Calibri,Calibri_MSFontService,sans-serif" font-style="normal" font-variant="normal" font-weight="400" font-stretch="normal" font-size="18" text-anchor="start" direction="ltr" writing-mode="lr-tb" unicode-bidi="normal" text-decoration="none" transform="matrix(0.595291 0 0 0.594203 2.08352 74)">20</text></g><g clip-path="url(#clip16)"><text fill="#595959" fill-opacity="1" font-family="Calibri,Calibri_MSFontService,sans-serif" font-style="normal" font-variant="normal" font-weight="400" font-stretch="normal" font-size="18" text-anchor="start" direction="ltr" writing-mode="lr-tb" unicode-bidi="normal" text-decoration="none" transform="matrix(0.595291 0 0 0.594203 2.08352 36)">25</text></g><g clip-path="url(#clip17)"><text fill="#595959" fill-opacity="1" font-family="Calibri,Calibri_MSFontService,sans-serif" font-style="normal" font-variant="normal" font-weight="400" font-stretch="normal" font-size="18" text-anchor="start" direction="ltr" writing-mode="lr-tb" unicode-bidi="normal" text-decoration="none" transform="matrix(0.595291 0 0 0.594203 20.1673 242)">0</text></g><g clip-path="url(#clip18)"><text fill="#595959" fill-opacity="1" font-family="Calibri,Calibri_MSFontService,sans-serif" font-style="normal" font-variant="normal" font-weight="400" font-stretch="normal" font-size="18" text-anchor="start" direction="ltr" writing-mode="lr-tb" unicode-bidi="normal" text-decoration="none" transform="matrix(0.595291 0 0 0.594203 46.3732 242)">10</text></g><g clip-path="url(#clip19)"><text fill="#595959" fill-opacity="1" font-family="Calibri,Calibri_MSFontService,sans-serif" font-style="normal" font-variant="normal" font-weight="400" font-stretch="normal" font-size="18" text-anchor="start" direction="ltr" writing-mode="lr-tb" unicode-bidi="normal" text-decoration="none" transform="matrix(0.595291 0 0 0.594203 75.2931 242)">20</text></g><g clip-path="url(#clip20)"><text fill="#595959" fill-opacity="1" font-family="Calibri,Calibri_MSFontService,sans-serif" font-style="normal" font-variant="normal" font-weight="400" font-stretch="normal" font-size="18" text-anchor="start" direction="ltr" writing-mode="lr-tb" unicode-bidi="normal" text-decoration="none" transform="matrix(0.595291 0 0 0.594203 104.213 242)">30</text></g><g clip-path="url(#clip21)"><text fill="#595959" fill-opacity="1" font-family="Calibri,Calibri_MSFontService,sans-serif" font-style="normal" font-variant="normal" font-weight="400" font-stretch="normal" font-size="18" text-anchor="start" direction="ltr" writing-mode="lr-tb" unicode-bidi="normal" text-decoration="none" transform="matrix(0.595291 0 0 0.594203 133.133 242)">40</text></g><g clip-path="url(#clip22)"><text fill="#595959" fill-opacity="1" font-family="Calibri,Calibri_MSFontService,sans-serif" font-style="normal" font-variant="normal" font-weight="400" font-stretch="normal" font-size="18" text-anchor="start" direction="ltr" writing-mode="lr-tb" unicode-bidi="normal" text-decoration="none" transform="matrix(0.595291 0 0 0.594203 162.05 242)">50</text></g><g clip-path="url(#clip23)"><text fill="#595959" fill-opacity="1" font-family="Calibri,Calibri_MSFontService,sans-serif" font-style="normal" font-variant="normal" font-weight="400" font-stretch="normal" font-size="18" text-anchor="start" direction="ltr" writing-mode="lr-tb" unicode-bidi="normal" text-decoration="none" transform="matrix(0.595291 0 0 0.594203 190.975 242)">60</text></g><g clip-path="url(#clip24)"><text fill="#595959" fill-opacity="1" font-family="Calibri,Calibri_MSFontService,sans-serif" font-style="normal" font-variant="normal" font-weight="400" font-stretch="normal" font-size="18" text-anchor="start" direction="ltr" writing-mode="lr-tb" unicode-bidi="normal" text-decoration="none" transform="matrix(0.595291 0 0 0.594203 219.895 242)">70</text></g><g clip-path="url(#clip25)"><text fill="#595959" fill-opacity="1" font-family="Calibri,Calibri_MSFontService,sans-serif" font-style="normal" font-variant="normal" font-weight="400" font-stretch="normal" font-size="18" text-anchor="start" direction="ltr" writing-mode="lr-tb" unicode-bidi="normal" text-decoration="none" transform="matrix(0.595291 0 0 0.594203 248.814 242)">80</text></g><g clip-path="url(#clip26)"><text fill="#595959" fill-opacity="1" font-family="Calibri,Calibri_MSFontService,sans-serif" font-style="normal" font-variant="normal" font-weight="400" font-stretch="normal" font-size="18" text-anchor="start" direction="ltr" writing-mode="lr-tb" unicode-bidi="normal" text-decoration="none" transform="matrix(0.595291 0 0 0.594203 277.733 242)">90</text></g><g clip-path="url(#clip27)"><text fill="#595959" fill-opacity="1" font-family="Calibri,Calibri_MSFontService,sans-serif" font-style="normal" font-variant="normal" font-weight="400" font-stretch="normal" font-size="18" text-anchor="start" direction="ltr" writing-mode="lr-tb" unicode-bidi="normal" text-decoration="none" transform="matrix(0.595291 0 0 0.594203 303.938 242)">100</text></g><g clip-path="url(#clip28)"><text fill="#595959" fill-opacity="1" font-family="Calibri,Calibri_MSFontService,sans-serif" font-style="normal" font-variant="normal" font-weight="400" font-stretch="normal" font-size="18" text-anchor="start" direction="ltr" writing-mode="lr-tb" unicode-bidi="normal" text-decoration="none" transform="matrix(0.595291 0 0 0.594203 332.857 242)">110</text></g><g clip-path="url(#clip29)"><text fill="#595959" fill-opacity="1" font-family="Calibri,Calibri_MSFontService,sans-serif" font-style="normal" font-variant="normal" font-weight="400" font-stretch="normal" font-size="18" text-anchor="start" direction="ltr" writing-mode="lr-tb" unicode-bidi="normal" text-decoration="none" transform="matrix(0.595291 0 0 0.594203 361.776 242)">120</text></g><g clip-path="url(#clip30)"><text fill="#595959" fill-opacity="1" font-family="Calibri,Calibri_MSFontService,sans-serif" font-style="normal" font-variant="normal" font-weight="400" font-stretch="normal" font-size="18" text-anchor="start" direction="ltr" writing-mode="lr-tb" unicode-bidi="normal" text-decoration="none" transform="matrix(0.595291 0 0 0.594203 390.696 242)">130</text></g><g clip-path="url(#clip31)"><text fill="#595959" fill-opacity="1" font-family="Calibri,Calibri_MSFontService,sans-serif" font-style="normal" font-variant="normal" font-weight="400" font-stretch="normal" font-size="18" text-anchor="start" direction="ltr" writing-mode="lr-tb" unicode-bidi="normal" text-decoration="none" transform="matrix(0.595291 0 0 0.594203 419.621 242)">140</text></g><g clip-path="url(#clip32)"><text fill="#595959" fill-opacity="1" font-family="Calibri,Calibri_MSFontService,sans-serif" font-style="normal" font-variant="normal" font-weight="400" font-stretch="normal" font-size="18" text-anchor="start" direction="ltr" writing-mode="lr-tb" unicode-bidi="normal" text-decoration="none" transform="matrix(0.595291 0 0 0.594203 448.54 242)">150</text></g><g clip-path="url(#clip33)"><text fill="#595959" fill-opacity="1" font-family="Calibri,Calibri_MSFontService,sans-serif" font-style="normal" font-variant="normal" font-weight="400" font-stretch="normal" font-size="18" text-anchor="start" direction="ltr" writing-mode="lr-tb" unicode-bidi="normal" text-decoration="none" transform="matrix(0.595291 0 0 0.594203 477.459 242)">160</text></g><g clip-path="url(#clip34)"><text fill="#595959" fill-opacity="1" font-family="Calibri,Calibri_MSFontService,sans-serif" font-style="normal" font-variant="normal" font-weight="400" font-stretch="normal" font-size="18" text-anchor="start" direction="ltr" writing-mode="lr-tb" unicode-bidi="normal" text-decoration="none" transform="matrix(0.595291 0 0 0.594203 506.379 242)">170</text></g><g clip-path="url(#clip35)"><text fill="#595959" fill-opacity="1" font-family="Yu Gothic,Yu Gothic_MSFontService,sans-serif" font-style="normal" font-variant="normal" font-weight="400" font-stretch="normal" font-size="28" text-anchor="start" direction="ltr" writing-mode="lr-tb" unicode-bidi="normal" text-decoration="none" transform="matrix(0.595291 0 0 0.594203 107.495 28)">堀<tspan fill="#595959" fill-opacity="1" font-family="Yu Gothic,Yu Gothic_MSFontService,sans-serif" font-style="normal" font-variant="normal" font-weight="400" font-stretch="normal" font-size="28" text-anchor="start" direction="ltr" writing-mode="lr-tb" unicode-bidi="normal" text-decoration="none" x="28" y="0">ノ</tspan><tspan fill="#595959" fill-opacity="1" font-family="Yu Gothic,Yu Gothic_MSFontService,sans-serif" font-style="normal" font-variant="normal" font-weight="400" font-stretch="normal" font-size="28" text-anchor="start" direction="ltr" writing-mode="lr-tb" unicode-bidi="normal" text-decoration="none" x="56" y="0">内</tspan></text></g><g clip-path="url(#clip36)"><text fill="#595959" fill-opacity="1" font-family="Calibri,Calibri_MSFontService,sans-serif" font-style="normal" font-variant="normal" font-weight="400" font-stretch="normal" font-size="28" text-anchor="start" direction="ltr" writing-mode="lr-tb" unicode-bidi="normal" text-decoration="none" transform="matrix(0.595291 0 0 0.594203 157.496 28)">→</text></g><g clip-path="url(#clip37)"><text fill="#595959" fill-opacity="1" font-family="Yu Gothic,Yu Gothic_MSFontService,sans-serif" font-style="normal" font-variant="normal" font-weight="400" font-stretch="normal" font-size="28" text-anchor="start" direction="ltr" writing-mode="lr-tb" unicode-bidi="normal" text-decoration="none" transform="matrix(0.595291 0 0 0.594203 172.587 28)">横須賀中央：速度<tspan fill="#595959" fill-opacity="1" font-family="Yu Gothic,Yu Gothic_MSFontService,sans-serif" font-style="normal" font-variant="normal" font-weight="400" font-stretch="normal" font-size="28" text-anchor="start" direction="ltr" writing-mode="lr-tb" unicode-bidi="normal" text-decoration="none" x="224" y="0">と</tspan><tspan fill="#595959" fill-opacity="1" font-family="Yu Gothic,Yu Gothic_MSFontService,sans-serif" font-style="normal" font-variant="normal" font-weight="400" font-stretch="normal" font-size="28" text-anchor="start" direction="ltr" writing-mode="lr-tb" unicode-bidi="normal" text-decoration="none" x="252" y="0">時刻</tspan><tspan fill="#595959" fill-opacity="1" font-family="Yu Gothic,Yu Gothic_MSFontService,sans-serif" font-style="normal" font-variant="normal" font-weight="400" font-stretch="normal" font-size="28" text-anchor="start" direction="ltr" writing-mode="lr-tb" unicode-bidi="normal" text-decoration="none" x="308" y="0">の</tspan><tspan fill="#595959" fill-opacity="1" font-family="Yu Gothic,Yu Gothic_MSFontService,sans-serif" font-style="normal" font-variant="normal" font-weight="400" font-stretch="normal" font-size="28" text-anchor="start" direction="ltr" writing-mode="lr-tb" unicode-bidi="normal" text-decoration="none" x="336" y="0">グラフ</tspan></text></g><path d="M438.225 97.7464 966.471 97.7464 966.471 343.152 438.225 343.152Z" stroke="#898989" stroke-width="0.594203" stroke-linecap="butt" stroke-linejoin="round" stroke-miterlimit="10" stroke-opacity="1" fill="none" fill-rule="nonzero" transform="matrix(1.00183 0 0 1 -438.135 -97.4493)"/></g></g></g></g></g></svg>